<?xml version="1.0" encoding="UTF-8"?>
<svg version="1.1" xmlns="http://www.w3.org/2000/svg" width="420" height="420">
<path d="M0 0 C138.6 0 277.2 0 420 0 C420 138.6 420 277.2 420 420 C281.4 420 142.8 420 0 420 C0 281.4 0 142.8 0 0 Z " fill="#F0F0F0" transform="translate(0,0)"/>
<path d="M0 0 C115.83 0 231.66 0 351 0 C351 46.53 351 93.06 351 141 C327.9 141 304.8 141 281 141 C281 163.77 281 186.54 281 210 C304.1 210 327.2 210 351 210 C351 233.43 351 256.86 351 281 C327.57 281 304.14 281 280 281 C280 257.9 280 234.8 280 211 C211.03 211 142.06 211 71 211 C71 234.1 71 257.2 71 281 C47.57 281 24.14 281 0 281 C0 257.57 0 234.14 0 210 C23.1 210 46.2 210 70 210 C70 187.23 70 164.46 70 141 C46.9 141 23.8 141 0 141 C0 94.47 0 47.94 0 0 Z " fill="#4ACF86" transform="translate(35,105)"/>
<path d="M0 0 C22.77 0 45.54 0 69 0 C69 22.77 69 45.54 69 69 C46.23 69 23.46 69 0 69 C0 46.23 0 23.46 0 0 Z " fill="#F0F0F0" transform="translate(176,176)"/>
</svg>
